<svg xmlns="http://www.w3.org/2000/svg" width="75" viewBox="0 0 75 75" height="75" version="1.0"><defs><clipPath id="a"><path d="M 5.957031 6.550781 L 68.957031 6.550781 L 68.957031 68.800781 L 5.957031 68.800781 Z M 5.957031 6.550781"/></clipPath><clipPath id="b"><path d="M 8 27 L 34 27 L 34 68.800781 L 8 68.800781 Z M 8 27"/></clipPath><clipPath id="c"><path d="M 40 27 L 66 27 L 66 68.800781 L 40 68.800781 Z M 40 27"/></clipPath><clipPath id="d"><path d="M 27 6.550781 L 48 6.550781 L 48 20 L 27 20 Z M 27 6.550781"/></clipPath></defs><path fill="#FFF" d="M-7.5 -7.5H82.5V82.5H-7.5z"/><path fill="#FFF" d="M-7.5 -7.5H82.5V82.5H-7.5z"/><path fill="#EE5B4B" d="M-7.5 -7.5H82.5V82.5H-7.5z"/><g clip-path="url(#a)"><path transform="matrix(.01613 0 0 .01613 4.932 5.382)" fill="none" d="M 0.084332 0.0741122 L 4000.084897 0.0741122 L 4000.084897 4000.074677 L 0.084332 4000.074677 Z M 0.084332 0.0741122" stroke="#000" stroke-miterlimit="10"/></g><path fill="#FFF" d="M 59.433594 60.492188 C 59.050781 60.683594 58.1875 61.039062 57.726562 61.226562" fill-opacity=".4"/><path fill="#F9A429" d="M 38.636719 24.210938 L 28.753906 28.394531 L 15.128906 34.300781 C 12.238281 30.554688 10.628906 19.167969 13.339844 15.203125 C 14.160156 14.003906 15.394531 13.464844 17.144531 13.976562 C 21.550781 15.261719 28.59375 22.496094 38.636719 24.210938 Z M 38.636719 24.210938"/><path fill="#FFF" d="M 38.625 24.242188 L 36.851562 24.996094 C 27.644531 22.847656 21.109375 16.300781 16.9375 15.078125 C 15.1875 14.566406 13.953125 15.109375 13.132812 16.308594 C 12.707031 16.933594 12.390625 17.738281 12.175781 18.664062 C 12.371094 17.285156 12.742188 16.09375 13.328125 15.234375 C 14.148438 14.039062 15.382812 13.496094 17.132812 14.007812 C 21.539062 15.296875 28.582031 22.527344 38.625 24.242188 Z M 38.625 24.242188" fill-opacity=".498"/><path fill="#000072" d="M 28.589844 28.480469 L 15.21875 34.144531 C 12.324219 30.398438 10.464844 19.253906 13.175781 15.285156 C 13.777344 15.054688 14.523438 15.097656 15.40625 15.742188 C 17.667969 17.390625 23.152344 26.296875 28.589844 28.480469 Z M 28.589844 28.480469" fill-opacity=".298"/><path fill="#4B2600" d="M 15.371094 34.679688 C 15.175781 34.683594 15.019531 34.605469 14.902344 34.453125 C 13.429688 32.542969 12.277344 28.875 11.753906 24.847656 C 11.183594 20.472656 11.625 16.882812 12.941406 14.957031 C 13.972656 13.445312 15.796875 13.230469 17.269531 13.589844 C 18.972656 14.003906 20.886719 15.433594 23.214844 16.929688 C 27.28125 19.542969 32.371094 23.042969 38.648438 24.113281 C 38.96875 24.167969 39.261719 24.023438 39.207031 24.34375 C 39.179688 24.503906 39.097656 24.628906 38.964844 24.726562 C 38.832031 24.820312 38.6875 24.851562 38.527344 24.824219 C 32.015625 23.710938 26.96875 19.753906 22.808594 17.082031 C 20.558594 15.636719 18.617188 14.386719 17.097656 13.941406 C 15.710938 13.535156 13.929688 14.132812 13.195312 15.207031 C 12.054688 16.878906 11.632812 21.121094 12.15625 25.152344 C 12.648438 28.925781 14.035156 32.363281 15.371094 34.089844 C 15.566406 34.347656 15.988281 34.359375 15.730469 34.558594 C 15.625 34.640625 15.503906 34.683594 15.371094 34.679688 Z M 15.371094 34.679688"/><path fill="#FFF3E9" d="M 15.710938 32.039062 C 15.871094 32.328125 16.039062 32.578125 16.207031 32.789062 L 25.871094 23.210938 C 20.238281 19.519531 16.230469 16.289062 15.097656 16.8125 C 14.921875 16.894531 14.742188 17.117188 14.574219 17.472656 C 14.121094 18.421875 13.753906 20.316406 13.769531 22.980469 C 13.785156 26.1875 14.578125 30 15.710938 32.039062 Z M 15.710938 32.039062"/><path fill="#000072" d="M 15.78125 31.984375 C 15.9375 32.269531 16.105469 32.523438 16.277344 32.730469 L 26.003906 23.210938 C 20.371094 19.519531 16.300781 16.03125 15.167969 16.554688 C 14.992188 16.636719 14.808594 17.0625 14.640625 17.417969 C 15.0625 17.601562 15.640625 18.054688 16.425781 18.988281 C 18.902344 21.933594 18.984375 25.054688 17.976562 27.980469 C 17.6875 28.828125 16.671875 30.546875 15.78125 31.984375 Z M 15.78125 31.984375" fill-opacity=".298"/><path fill="#4B2600" d="M 16.34375 33.3125 C 16.335938 33.3125 16.324219 33.3125 16.316406 33.3125 C 16.164062 33.300781 16.042969 33.242188 15.949219 33.125 C 14.371094 31.191406 13.410156 26.457031 13.390625 22.992188 C 13.375 19.429688 14.011719 16.828125 15.019531 16.363281 C 15.96875 15.921875 17.347656 16.894531 20.648438 19.328125 C 22.214844 20.480469 23.988281 21.792969 26.050781 23.144531 C 26.1875 23.234375 26.261719 23.359375 26.277344 23.523438 C 26.296875 23.683594 26.246094 23.820312 26.128906 23.9375 L 16.703125 33.164062 C 16.601562 33.261719 16.484375 33.3125 16.34375 33.3125 Z M 15.582031 16.601562 C 14.484375 16.828125 13.78125 19.175781 13.800781 23.027344 C 13.820312 26.390625 14.992188 30.820312 16.105469 32.640625 L 25.515625 23.253906 C 23.644531 22.003906 21.550781 20.46875 20.179688 19.457031 C 18.914062 18.527344 17.820312 17.71875 16.984375 17.203125 C 16.109375 16.660156 15.589844 16.597656 15.582031 16.601562 Z M 15.582031 16.601562"/><path fill="#F9A429" d="M 36.777344 22.859375 L 46.660156 27.046875 L 60.285156 32.953125 C 63.175781 29.207031 64.785156 17.820312 62.074219 13.855469 C 61.253906 12.65625 60.019531 12.113281 58.269531 12.625 C 53.863281 13.914062 46.820312 21.144531 36.777344 22.859375 Z M 36.777344 22.859375"/><path fill="#FFF" d="M 36.789062 22.894531 L 38.5625 23.648438 C 47.769531 21.496094 54.304688 14.949219 58.476562 13.730469 C 60.226562 13.21875 61.460938 13.761719 62.28125 14.957031 C 62.707031 15.582031 63.023438 16.390625 63.238281 17.316406 C 63.042969 15.9375 62.671875 14.746094 62.085938 13.886719 C 61.265625 12.691406 60.03125 12.148438 58.28125 12.660156 C 53.875 13.949219 46.832031 21.179688 36.789062 22.894531 Z M 36.789062 22.894531" fill-opacity=".498"/><path fill="#000072" d="M 46.824219 27.128906 L 60.195312 32.792969 C 63.085938 29.046875 64.949219 17.90625 62.238281 13.9375 C 61.636719 13.707031 60.890625 13.75 60.007812 14.394531 C 57.746094 16.039062 52.257812 24.945312 46.824219 27.128906 Z M 46.824219 27.128906" fill-opacity=".298"/><path fill="#4B2600" d="M 60.042969 33.332031 C 60.238281 33.332031 60.394531 33.257812 60.511719 33.101562 C 61.984375 31.195312 63.136719 27.527344 63.660156 23.5 C 64.230469 19.125 63.789062 15.535156 62.472656 13.605469 C 61.441406 12.097656 59.617188 11.878906 58.144531 12.238281 C 56.441406 12.65625 54.527344 14.085938 52.199219 15.578125 C 48.132812 18.195312 43.042969 21.691406 36.765625 22.765625 C 36.445312 22.820312 36.152344 22.671875 36.207031 22.992188 C 36.234375 23.152344 36.316406 23.28125 36.449219 23.375 C 36.582031 23.46875 36.726562 23.503906 36.886719 23.476562 C 43.398438 22.363281 48.445312 18.402344 52.605469 15.730469 C 54.855469 14.285156 56.796875 13.035156 58.316406 12.59375 C 59.703125 12.1875 61.484375 12.78125 62.21875 13.859375 C 63.359375 15.527344 63.78125 19.769531 63.253906 23.800781 C 62.765625 27.578125 61.375 31.015625 60.042969 32.742188 C 59.84375 33 59.425781 33.011719 59.683594 33.210938 C 59.789062 33.292969 59.910156 33.332031 60.042969 33.332031 Z M 60.042969 33.332031"/><path fill="#FFF3E9" d="M 59.703125 30.691406 C 59.542969 30.976562 59.375 31.230469 59.207031 31.4375 L 49.542969 21.863281 C 55.175781 18.167969 59.183594 14.941406 60.316406 15.464844 C 60.492188 15.546875 60.671875 15.769531 60.839844 16.125 C 61.292969 17.070312 61.660156 18.964844 61.644531 21.632812 C 61.628906 24.835938 60.835938 28.652344 59.703125 30.691406 Z M 59.703125 30.691406"/><path fill="#000072" d="M 59.632812 30.632812 L 59.632812 30.636719 C 59.472656 30.921875 59.308594 31.171875 59.136719 31.382812 L 49.410156 21.863281 C 55.042969 18.167969 59.113281 14.679688 60.246094 15.207031 C 60.421875 15.289062 60.605469 15.710938 60.773438 16.066406 C 60.351562 16.25 59.773438 16.703125 58.988281 17.640625 C 56.511719 20.582031 56.429688 23.703125 57.4375 26.628906 C 57.726562 27.476562 58.742188 29.199219 59.632812 30.632812 Z M 59.632812 30.632812" fill-opacity=".298"/><path fill="#4B2600" d="M 58.710938 31.816406 L 49.285156 22.585938 C 49.167969 22.472656 49.117188 22.335938 49.132812 22.171875 C 49.148438 22.011719 49.226562 21.882812 49.363281 21.792969 C 51.425781 20.441406 53.199219 19.132812 54.765625 17.976562 C 58.066406 15.542969 59.441406 14.574219 60.394531 15.011719 C 61.402344 15.480469 62.039062 18.082031 62.019531 21.644531 C 62.003906 25.109375 61.042969 29.84375 59.464844 31.773438 C 59.371094 31.890625 59.246094 31.953125 59.097656 31.960938 C 59.089844 31.960938 59.078125 31.960938 59.070312 31.960938 C 58.929688 31.960938 58.8125 31.914062 58.710938 31.816406 Z M 58.429688 15.855469 C 57.59375 16.371094 56.5 17.175781 55.234375 18.109375 C 53.867188 19.121094 51.769531 20.652344 49.898438 21.90625 L 59.308594 31.289062 C 60.421875 29.472656 61.59375 25.042969 61.613281 21.675781 C 61.632812 17.828125 60.929688 15.476562 59.832031 15.25 C 59.824219 15.25 59.304688 15.3125 58.429688 15.855469 Z M 58.429688 15.855469"/><path fill="#F9A429" d="M 63.96875 57.402344 C 57.84375 67.28125 41.429688 67.570312 37.539062 67.570312 C 33.652344 67.570312 17.238281 67.28125 11.113281 57.402344 C 8.585938 53.316406 9.296875 49.957031 10.289062 47.914062 C 10.859375 46.738281 11.523438 46 11.71875 45.804688 C 12.574219 40.765625 13.632812 18.015625 37.539062 18.015625 C 61.449219 18.015625 62.507812 40.765625 63.363281 45.804688 C 63.558594 46 64.222656 46.738281 64.792969 47.914062 C 65.789062 49.957031 66.496094 53.316406 63.96875 57.402344 Z M 63.96875 57.402344"/><path fill="#FFF3E9" d="M 63.578125 57.71875 C 57.457031 67.597656 41.050781 67.886719 37.15625 67.886719 L 37.152344 67.886719 C 33.257812 67.886719 16.851562 67.597656 10.730469 57.71875 C 8.199219 53.632812 8.910156 50.273438 9.902344 48.230469 C 12.054688 45.578125 15.84375 43.042969 21.667969 45.707031 C 23.640625 46.609375 24.894531 48.476562 28.207031 47.648438 C 29.964844 47.210938 32.429688 43.828125 37.152344 43.828125 L 37.15625 43.828125 C 41.875 43.828125 44.339844 47.210938 46.097656 47.648438 C 49.414062 48.476562 50.667969 46.609375 52.640625 45.707031 C 58.464844 43.042969 62.253906 45.578125 64.40625 48.230469 C 65.398438 50.273438 66.109375 53.632812 63.578125 57.71875 Z M 63.578125 57.71875"/><path fill="#000072" d="M 63.578125 57.71875 C 57.453125 67.597656 41.042969 67.886719 37.152344 67.886719 C 33.261719 67.886719 16.851562 67.597656 10.726562 57.71875 C 9.132812 55.144531 8.824219 52.863281 9.0625 51.011719 C 9.234375 52.363281 9.726562 53.863281 10.726562 55.472656 C 16.851562 65.351562 33.261719 65.640625 37.152344 65.640625 C 41.042969 65.640625 57.453125 65.351562 63.578125 55.472656 C 64.578125 53.859375 65.070312 52.363281 65.242188 51.011719 C 65.480469 52.863281 65.171875 55.144531 63.578125 57.71875 Z M 63.578125 57.71875" fill-opacity=".298"/><path fill="#512717" d="M 37.429688 51.085938 L 37.359375 51.097656 L 37.359375 51.074219 Z M 37.429688 51.085938"/><path fill="#512717" d="M 37.496094 51.074219 L 37.496094 51.097656 L 37.429688 51.085938 Z M 37.496094 51.074219"/><path fill="#4B2600" d="M 28.007812 20.179688 C 29.46875 19.6875 30.976562 19.355469 32.496094 19.132812 C 34.015625 18.914062 35.550781 18.824219 37.082031 18.808594 C 38.613281 18.820312 40.144531 18.914062 41.667969 19.128906 C 43.1875 19.351562 44.699219 19.679688 46.15625 20.175781 C 47.625 20.664062 49.023438 21.300781 50.355469 22.089844 C 51.671875 22.882812 52.90625 23.816406 54 24.886719 C 54.003906 24.894531 54.007812 24.898438 54.011719 24.90625 C 54.035156 24.890625 54.054688 24.878906 54.070312 24.859375 C 54.125 24.800781 54.152344 24.734375 54.152344 24.652344 C 54.152344 24.574219 54.125 24.507812 54.066406 24.449219 C 52.972656 23.378906 51.742188 22.445312 50.421875 21.652344 C 49.09375 20.863281 47.691406 20.222656 46.226562 19.738281 C 44.765625 19.242188 43.253906 18.914062 41.734375 18.691406 C 40.214844 18.476562 38.679688 18.378906 37.148438 18.371094 C 35.621094 18.382812 34.085938 18.476562 32.5625 18.695312 C 31.042969 18.914062 29.535156 19.246094 28.074219 19.742188 C 26.605469 20.226562 25.207031 20.863281 23.878906 21.65625 C 22.558594 22.445312 21.328125 23.378906 20.234375 24.449219 C 20.105469 24.574219 20.101562 24.703125 20.210938 24.839844 L 20.214844 24.84375 C 21.296875 23.792969 22.511719 22.871094 23.8125 22.09375 C 25.140625 21.304688 26.539062 20.664062 28.007812 20.179688 Z M 28.007812 20.179688"/><g clip-path="url(#b)"><path fill="#4B2600" d="M 20.15625 64.878906 C 18.667969 64.25 17.230469 63.472656 15.894531 62.53125 C 14.558594 61.589844 13.328125 60.476562 12.296875 59.1875 C 11.265625 57.902344 10.421875 56.449219 9.90625 54.84375 C 9.390625 53.246094 9.261719 51.488281 9.632812 49.828125 C 9.722656 49.414062 9.839844 49.007812 9.988281 48.609375 C 10.132812 48.210938 10.300781 47.824219 10.496094 47.449219 C 10.691406 47.074219 10.910156 46.710938 11.148438 46.363281 C 11.273438 46.191406 11.398438 46.019531 11.53125 45.855469 C 11.628906 45.738281 11.726562 45.625 11.832031 45.507812 C 11.878906 45.175781 11.917969 44.839844 11.960938 44.5 L 12.113281 43.296875 C 12.214844 42.492188 12.328125 41.683594 12.46875 40.878906 C 12.746094 39.273438 13.097656 37.671875 13.5625 36.097656 C 13.792969 35.3125 14.050781 34.53125 14.339844 33.761719 C 14.628906 32.992188 14.9375 32.230469 15.289062 31.484375 C 15.921875 30.132812 16.691406 28.835938 17.640625 27.679688 C 17.625 27.65625 17.605469 27.632812 17.582031 27.613281 C 17.523438 27.558594 17.453125 27.535156 17.371094 27.539062 C 17.292969 27.546875 17.226562 27.578125 17.171875 27.640625 C 16.089844 28.878906 15.226562 30.304688 14.527344 31.789062 C 14.179688 32.535156 13.867188 33.296875 13.578125 34.066406 C 13.292969 34.835938 13.035156 35.613281 12.804688 36.402344 C 12.339844 37.976562 11.988281 39.574219 11.710938 41.183594 C 11.570312 41.988281 11.453125 42.792969 11.351562 43.601562 L 11.203125 44.804688 C 11.15625 45.140625 11.121094 45.480469 11.074219 45.8125 C 10.964844 45.929688 10.871094 46.042969 10.773438 46.160156 C 10.636719 46.324219 10.511719 46.496094 10.390625 46.667969 C 10.148438 47.015625 9.933594 47.378906 9.738281 47.753906 C 9.542969 48.128906 9.375 48.515625 9.230469 48.914062 C 9.082031 49.3125 8.964844 49.71875 8.875 50.132812 C 8.503906 51.792969 8.632812 53.550781 9.148438 55.148438 C 9.664062 56.753906 10.507812 58.207031 11.539062 59.492188 C 12.570312 60.78125 13.800781 61.894531 15.136719 62.835938 C 16.46875 63.773438 17.910156 64.550781 19.398438 65.183594 C 20.886719 65.820312 22.425781 66.316406 23.980469 66.714844 C 27.097656 67.496094 30.285156 67.902344 33.46875 68.007812 C 33.648438 68.015625 33.75 67.925781 33.765625 67.75 C 33.769531 67.726562 33.769531 67.707031 33.765625 67.6875 C 30.734375 67.558594 27.707031 67.15625 24.738281 66.410156 C 23.183594 66.011719 21.644531 65.515625 20.15625 64.878906 Z M 20.15625 64.878906"/></g><g clip-path="url(#c)"><path fill="#4B2600" d="M 54.421875 64.878906 C 55.910156 64.25 57.347656 63.472656 58.683594 62.53125 C 60.019531 61.589844 61.25 60.476562 62.28125 59.1875 C 63.3125 57.902344 64.15625 56.449219 64.671875 54.84375 C 65.1875 53.246094 65.316406 51.488281 64.945312 49.828125 C 64.855469 49.414062 64.738281 49.007812 64.589844 48.609375 C 64.445312 48.210938 64.277344 47.824219 64.082031 47.449219 C 63.886719 47.074219 63.671875 46.710938 63.429688 46.363281 C 63.308594 46.191406 63.179688 46.019531 63.046875 45.855469 C 62.949219 45.738281 62.851562 45.625 62.746094 45.507812 C 62.699219 45.175781 62.664062 44.839844 62.617188 44.5 L 62.46875 43.296875 C 62.363281 42.492188 62.25 41.683594 62.109375 40.878906 C 61.832031 39.273438 61.480469 37.671875 61.015625 36.097656 C 60.785156 35.3125 60.527344 34.53125 60.242188 33.761719 C 59.953125 32.992188 59.640625 32.230469 59.292969 31.484375 C 58.65625 30.132812 57.886719 28.835938 56.9375 27.679688 C 56.953125 27.65625 56.972656 27.632812 56.996094 27.613281 C 57.054688 27.558594 57.128906 27.535156 57.207031 27.539062 C 57.289062 27.546875 57.355469 27.578125 57.40625 27.640625 C 58.488281 28.878906 59.351562 30.304688 60.050781 31.789062 C 60.398438 32.535156 60.710938 33.296875 61 34.066406 C 61.285156 34.835938 61.542969 35.613281 61.773438 36.402344 C 62.238281 37.976562 62.59375 39.574219 62.867188 41.183594 C 63.007812 41.988281 63.125 42.792969 63.226562 43.601562 L 63.378906 44.804688 C 63.421875 45.140625 63.460938 45.480469 63.503906 45.8125 C 63.613281 45.929688 63.707031 46.042969 63.804688 46.160156 C 63.941406 46.324219 64.066406 46.496094 64.1875 46.667969 C 64.429688 47.015625 64.648438 47.378906 64.839844 47.753906 C 65.035156 48.128906 65.207031 48.515625 65.347656 48.914062 C 65.496094 49.3125 65.613281 49.71875 65.703125 50.132812 C 66.078125 51.792969 65.945312 53.550781 65.429688 55.148438 C 64.917969 56.753906 64.074219 58.207031 63.042969 59.492188 C 62.007812 60.78125 60.777344 61.894531 59.445312 62.835938 C 58.109375 63.773438 56.671875 64.554688 55.179688 65.183594 C 53.691406 65.820312 52.15625 66.316406 50.597656 66.714844 C 47.480469 67.496094 44.292969 67.902344 41.109375 68.007812 C 41.019531 68.011719 40.945312 67.980469 40.886719 67.914062 C 40.828125 67.851562 40.800781 67.773438 40.8125 67.6875 C 43.84375 67.558594 46.875 67.15625 49.839844 66.410156 C 51.394531 66.011719 52.933594 65.515625 54.421875 64.878906 Z M 54.421875 64.878906"/></g><path fill="#512717" d="M 37.429688 49.601562 L 37.359375 49.613281 L 37.359375 49.589844 Z M 37.429688 49.601562"/><path fill="#512717" d="M 37.5 49.589844 L 37.5 49.613281 L 37.429688 49.601562 Z M 37.5 49.589844"/><path fill="#FFF3E9" d="M 41.902344 49.453125 C 41.902344 49.453125 42.414062 50.933594 41.074219 51.695312 C 39.789062 52.425781 38.273438 51.476562 37.5625 50.921875 C 37.289062 50.710938 37.152344 50.429688 37.152344 50.082031 C 37.152344 50.429688 37.015625 50.710938 36.742188 50.921875 C 36.03125 51.476562 34.515625 52.425781 33.226562 51.695312 C 31.890625 50.933594 32.402344 49.453125 32.402344 49.453125 C 32.402344 49.453125 32.71875 45.484375 37.152344 45.484375 C 41.589844 45.484375 41.902344 49.453125 41.902344 49.453125 Z M 41.902344 49.453125"/><path fill="#4B2600" d="M 40.511719 45.945312 C 39.875 47.722656 37.152344 48.726562 37.152344 48.726562 C 37.152344 48.726562 34.429688 47.722656 33.796875 45.945312 C 33.34375 44.671875 36.546875 44.464844 37.152344 44.464844 C 37.761719 44.464844 40.964844 44.671875 40.511719 45.945312 Z M 40.511719 45.945312"/><path fill="#FFF" d="M 38.546875 45.273438 C 38.28125 45.722656 37.15625 45.714844 37.15625 45.714844 C 37.15625 45.714844 36.027344 45.722656 35.761719 45.273438 C 35.574219 44.953125 36.902344 44.902344 37.15625 44.902344 C 37.40625 44.902344 38.734375 44.953125 38.546875 45.273438 Z M 38.546875 45.273438" fill-opacity=".498"/><path fill="#4B2600" d="M 30.828125 53.257812 C 32.726562 53.550781 34.589844 52.828125 35.789062 51.910156 C 36.40625 51.4375 36.863281 50.875 37.214844 50.304688 C 37.441406 49.941406 37.609375 49.554688 37.71875 49.140625 C 37.792969 48.867188 37.703125 48.402344 38.039062 48.222656 C 39.019531 47.699219 38.058594 46.703125 36.941406 46.800781 C 35.835938 46.898438 35.304688 48.007812 36.457031 48.355469 C 36.570312 48.378906 36.679688 48.421875 36.777344 48.480469 L 36.40625 48.167969 C 37.121094 49.273438 36.355469 50.804688 35.222656 51.675781 C 34.023438 52.601562 32.496094 52.835938 30.828125 53.230469 C 30.808594 53.234375 30.804688 53.253906 30.828125 53.257812 Z M 30.828125 53.257812"/><path fill="#4B2600" d="M 44.828125 53.1875 C 43.101562 52.96875 41.546875 52.894531 40.144531 52.121094 C 39.453125 51.738281 38.902344 51.277344 38.558594 50.734375 C 38.390625 50.472656 38.257812 50.199219 38.15625 49.90625 C 38.121094 49.804688 37.878906 49.03125 37.902344 49.023438 C 38.945312 48.570312 38.589844 47.453125 37.242188 47.453125 C 35.960938 47.453125 35.457031 48.601562 36.585938 49.023438 C 36.867188 49.128906 37.03125 49.882812 37.152344 50.082031 C 37.34375 50.402344 37.566406 50.699219 37.820312 50.972656 C 38.347656 51.53125 38.984375 52.070312 39.78125 52.484375 C 41.179688 53.210938 43.09375 53.675781 44.828125 53.214844 C 44.84375 53.210938 44.851562 53.191406 44.828125 53.1875 Z M 44.828125 53.1875"/><path fill="#381F1F" d="M 45.324219 10.527344 C 45.324219 8.570312 41.871094 7.023438 37.667969 7.023438 C 33.46875 7.023438 29.960938 8.570312 29.960938 10.527344 C 29.960938 10.871094 30.070312 11.203125 30.269531 11.519531 L 32.386719 16.28125 C 32.648438 16.828125 33.214844 17.179688 33.835938 17.179688 L 41.019531 17.179688 C 41.601562 17.179688 42.136719 16.871094 42.417969 16.375 L 44.914062 11.675781 C 45.179688 11.316406 45.324219 10.929688 45.324219 10.527344 Z M 45.324219 10.527344"/><g clip-path="url(#d)"><path transform="matrix(.01613 0 0 .01613 4.932 5.382)" fill="none" d="M 2504.929647 319.114855 C 2504.929647 197.748559 2290.78233 101.818313 2030.123378 101.818313 C 1769.706675 101.818313 1552.167884 197.748559 1552.167884 319.114855 C 1552.167884 340.432687 1558.950831 361.023776 1571.305484 380.645871 L 1702.603952 675.946301 C 1718.834575 709.861034 1753.960549 731.663363 1792.477996 731.663363 L 2237.972245 731.663363 C 2274.067211 731.663363 2307.2552 712.525763 2324.697063 681.760255 L 2479.493597 390.335795 C 2495.966467 368.04897 2504.929647 344.066409 2504.929647 319.114855 Z M 2504.929647 319.114855" stroke="#784421" stroke-width="9" stroke-miterlimit="10"/></g><path fill="#784421" d="M 14.828125 32.492188 C 15.0625 31.75 15.4375 31.15625 15.5 31.058594 C 15.363281 31.128906 15.257812 31.203125 15.1875 31.273438 C 19.089844 21.78125 26.542969 16.96875 37.355469 16.96875 C 48.761719 16.96875 56.410156 22.304688 60.121094 32.835938 C 60.992188 34.167969 61.417969 35.453125 61.515625 35.785156 L 61.128906 34.464844 C 60.449219 32.175781 59.589844 30.070312 58.574219 28.210938 C 57.347656 25.96875 55.859375 24.019531 54.144531 22.417969 C 52.171875 20.570312 49.855469 19.136719 47.257812 18.160156 C 44.351562 17.0625 41.019531 16.507812 37.355469 16.507812 C 34.003906 16.507812 30.925781 16.972656 28.207031 17.890625 C 25.746094 18.722656 23.523438 19.941406 21.597656 21.515625 C 18.433594 24.101562 15.984375 27.714844 14.316406 32.25 L 13.882812 33.429688 L 14.703125 32.484375 Z M 14.828125 32.492188"/><path fill="#784421" d="M 15.566406 31.027344 L 16.96875 30.574219 C 16.359375 30.71875 15.886719 30.871094 15.566406 31.027344 Z M 15.566406 31.027344"/><path fill="#381F1F" d="M 37.148438 25.03125 C 40.644531 25.03125 43.203125 22.75 45.792969 23.074219 C 47.429688 23.28125 49.515625 24.273438 51.003906 25.296875 C 51.21875 25.449219 51.683594 25.679688 51.890625 25.777344 C 56.378906 27.914062 58.945312 31.972656 61.148438 35.320312 C 58.707031 26.757812 52.824219 16.566406 37.21875 16.566406 C 23.007812 16.566406 16.859375 25.023438 14.03125 33.003906 C 19.949219 27.484375 23.472656 24.640625 27.320312 22.976562 C 29.117188 22.203125 26.371094 23.429688 28.707031 23.289062 C 31.128906 23.144531 34.308594 25.03125 37.148438 25.03125 Z M 37.148438 25.03125"/><path fill="#1E1313" d="M 32.71875 16.554688 C 37.511719 12.519531 41.933594 15.804688 42.238281 16.296875 C 42.378906 16.519531 42.222656 16.859375 42.222656 16.859375 C 42.222656 16.859375 38.9375 16.335938 37.765625 16.433594 C 36.59375 16.53125 32.6875 16.949219 32.6875 16.949219 Z M 32.71875 16.554688"/><path fill="#784421" d="M 34.640625 13.726562 C 34.109375 14.042969 34.554688 15.207031 34.804688 15.65625 C 35.050781 16.105469 35.289062 16.417969 35.480469 16.566406 L 35.636719 16.492188 L 35.914062 16.332031 L 35.738281 16.195312 C 35.671875 16.140625 35.402344 15.828125 35.175781 15.414062 C 34.949219 15.003906 34.734375 14.484375 34.671875 13.957031 Z M 34.640625 13.726562"/><path fill="#784421" d="M 35.734375 15.042969 C 35.929688 15.519531 36.152344 15.984375 36.40625 16.4375 L 36.515625 16.636719 L 36.886719 16.390625 L 36.773438 16.191406 C 36.53125 15.757812 36.320312 15.3125 36.132812 14.855469 C 35.816406 14.082031 35.519531 13.105469 35.558594 12.34375 L 35.574219 12.113281 C 34.796875 12.371094 35.519531 14.507812 35.734375 15.042969 Z M 35.734375 15.042969"/><path fill="#784421" d="M 36.753906 14.683594 C 36.820312 15.058594 36.90625 15.429688 37.007812 15.796875 C 37.09375 16.097656 37.160156 16.296875 37.238281 16.429688 L 37.351562 16.628906 L 37.722656 16.378906 L 37.605469 16.183594 C 37.589844 16.152344 37.503906 15.941406 37.421875 15.660156 C 37.324219 15.308594 37.246094 14.953125 37.179688 14.59375 C 37.03125 13.753906 36.9375 12.714844 37.058594 11.769531 L 37.089844 11.535156 C 36.394531 11.566406 36.652344 14.097656 36.753906 14.683594 Z M 36.753906 14.683594"/><path fill="#784421" d="M 38.1875 12.578125 C 38.273438 13.148438 38.191406 13.71875 38.140625 14.242188 C 38.070312 14.960938 37.96875 15.773438 37.867188 16.265625 L 37.820312 16.496094 L 38.242188 16.597656 L 38.289062 16.367188 C 38.402344 15.835938 38.503906 15.019531 38.570312 14.289062 C 38.621094 13.566406 38.6875 12.621094 38.1875 12.578125 Z M 38.1875 12.578125"/><path fill="#784421" d="M 39.902344 12.160156 L 39.882812 12.390625 C 39.859375 12.675781 39.667969 13.460938 39.433594 14.230469 C 39.199219 14.996094 38.914062 15.785156 38.722656 16.121094 L 38.609375 16.320312 L 38.980469 16.5625 L 39.09375 16.363281 C 39.332031 15.941406 39.609375 15.15625 39.847656 14.371094 C 40.0625 13.566406 40.402344 12.269531 39.902344 12.160156 Z M 39.902344 12.160156"/><path fill="#784421" d="M 40.847656 13.683594 L 40.792969 13.910156 C 40.730469 14.148438 40.140625 15.714844 39.808594 16.195312 L 39.679688 16.378906 L 40.078125 16.527344 L 40.15625 16.46875 C 40.566406 15.859375 41.339844 13.894531 40.847656 13.683594 Z M 40.847656 13.683594"/><path fill="#381F1F" d="M 23.953125 25.695312 L 14.082031 33.210938 L 16.550781 29.238281 L 22.609375 23.621094 L 26.199219 22.914062 L 26.398438 23.671875 Z M 23.953125 25.695312"/><path fill="#381F1F" d="M 60.703125 34.566406 C 60.703125 34.566406 50.179688 23.738281 46.789062 23.132812 C 43.398438 22.523438 46.839844 20.855469 46.839844 20.855469 L 53.222656 24.195312 L 59.007812 31.53125 Z M 60.703125 34.566406"/><path fill="#1E1313" d="M 23.835938 25.738281 C 24.917969 24.148438 27.6875 21.984375 29.734375 22.0625 C 32.519531 22.171875 36.003906 23.847656 37.507812 23.730469 C 39.007812 23.613281 43.417969 21.707031 45.726562 22.023438 C 48.039062 22.34375 50.765625 25.199219 51.070312 25.679688 C 51.375 26.160156 49.4375 24.308594 48.453125 24.027344 C 47.46875 23.746094 46.65625 23.0625 45.546875 23.140625 C 44.4375 23.21875 40.550781 24.371094 39.585938 24.78125 C 38.621094 25.195312 38.332031 25.46875 37.347656 25.414062 C 36.367188 25.359375 33.160156 24.046875 32.476562 23.859375 C 31.789062 23.667969 29.332031 22.996094 28.660156 23.136719 C 27.988281 23.277344 24.621094 24.898438 23.835938 25.738281 Z M 23.835938 25.738281"/><path fill="#784421" d="M 30.257812 21.414062 C 30.503906 22.253906 30.859375 23.089844 31.367188 23.535156 L 31.507812 23.65625 L 31.765625 23.390625 L 31.628906 23.269531 C 31.238281 22.933594 30.863281 22.128906 30.625 21.320312 C 30.382812 20.511719 30.269531 19.675781 30.296875 19.316406 L 30.3125 19.140625 C 29.761719 19.167969 30.164062 21.097656 30.257812 21.414062 Z M 30.257812 21.414062"/><path fill="#784421" d="M 33.308594 23.117188 C 33.457031 23.414062 33.625 23.699219 33.8125 23.96875 C 33.964844 24.191406 34.082031 24.335938 34.164062 24.414062 L 34.300781 24.542969 L 34.570312 24.289062 L 34.4375 24.164062 C 34.40625 24.132812 34.277344 23.984375 34.132812 23.773438 C 33.953125 23.515625 33.792969 23.246094 33.652344 22.964844 C 33.324219 22.320312 33.035156 21.496094 33.054688 20.683594 L 33.058594 20.503906 C 32.355469 20.824219 33.113281 22.730469 33.308594 23.117188 Z M 33.308594 23.117188"/><path fill="#784421" d="M 35.445312 22.90625 C 35.582031 23.421875 35.75 23.929688 35.945312 24.425781 C 36.023438 24.625 36.097656 24.792969 36.160156 24.921875 C 36.226562 25.050781 36.261719 25.128906 36.339844 25.207031 L 36.472656 25.335938 L 36.746094 25.089844 L 36.613281 24.960938 C 36.628906 24.972656 36.566406 24.886719 36.507812 24.773438 C 36.449219 24.65625 36.378906 24.492188 36.300781 24.300781 C 36.113281 23.816406 35.949219 23.320312 35.8125 22.820312 C 35.496094 21.664062 35.265625 20.269531 35.441406 19.226562 L 35.46875 19.050781 C 34.632812 19.339844 35.199219 22.089844 35.445312 22.90625 Z M 35.445312 22.90625"/><path fill="#784421" d="M 39.128906 18.980469 C 39.289062 19.363281 39.128906 20.898438 39.03125 21.734375 C 38.882812 22.996094 38.613281 24.382812 38.273438 24.972656 L 38.183594 25.128906 L 38.515625 25.300781 L 38.605469 25.140625 C 39.019531 24.425781 39.277344 23.054688 39.410156 21.773438 C 39.5 20.929688 39.761719 19.054688 39.128906 18.980469 Z M 39.128906 18.980469"/><path fill="#784421" d="M 41.644531 20.183594 C 41.546875 20.917969 41.421875 21.652344 41.273438 22.257812 C 41.082031 23.019531 40.800781 23.785156 40.507812 24.121094 L 40.386719 24.257812 L 40.679688 24.484375 L 40.800781 24.347656 C 41.191406 23.902344 41.464844 23.121094 41.644531 22.335938 C 41.820312 21.570312 41.964844 20.507812 41.644531 20.183594 Z M 41.644531 20.183594"/><path fill="#784421" d="M 44.53125 19.328125 C 44.601562 20.152344 44.054688 22.121094 43.292969 23.167969 L 43.179688 23.3125 L 43.492188 23.523438 L 43.601562 23.378906 C 44.226562 22.867188 45.316406 19.53125 44.53125 19.328125 Z M 44.53125 19.328125"/><path fill="#D30707" d="M 42.339844 16.75 C 42.339844 16.347656 40.570312 15.484375 37.632812 15.484375 C 34.699219 15.484375 32.660156 16.382812 32.660156 16.785156 C 32.660156 17.183594 34.71875 16.597656 37.652344 16.597656 C 40.585938 16.597656 42.339844 17.152344 42.339844 16.75 Z M 42.339844 16.75"/><path fill="#4B2600" d="M 27.851562 40.34375 L 27.570312 40.007812 C 27.464844 39.886719 27.355469 39.765625 27.246094 39.644531 C 27.023438 39.402344 26.796875 39.167969 26.558594 38.941406 C 26.082031 38.492188 25.578125 38.066406 25.023438 37.714844 C 24.742188 37.542969 24.457031 37.378906 24.15625 37.238281 C 23.855469 37.105469 23.546875 36.972656 23.222656 36.878906 C 22.578125 36.675781 21.890625 36.570312 21.171875 36.527344 L 21.160156 36.527344 C 20.964844 36.515625 20.855469 36.414062 20.828125 36.222656 C 20.804688 36.027344 20.882812 35.898438 21.070312 35.839844 C 21.839844 35.585938 22.632812 35.476562 23.441406 35.511719 C 24.273438 35.550781 25.078125 35.722656 25.851562 36.027344 C 27.03125 36.484375 28.050781 37.171875 28.921875 38.085938 C 29.066406 38.234375 29.199219 38.394531 29.332031 38.554688 C 29.398438 38.636719 29.460938 38.722656 29.523438 38.808594 C 29.554688 38.851562 29.585938 38.898438 29.617188 38.945312 L 29.71875 39.105469 C 29.878906 39.351562 29.933594 39.621094 29.882812 39.910156 C 29.828125 40.199219 29.683594 40.433594 29.449219 40.609375 C 29.210938 40.785156 28.949219 40.855469 28.65625 40.824219 C 28.363281 40.789062 28.121094 40.660156 27.929688 40.4375 Z M 27.851562 40.34375"/><path fill="#FFF" d="M 31.207031 34.964844 C 30.664062 35.601562 29.34375 35.367188 28.265625 34.441406 C 27.183594 33.515625 26.75 32.25 27.292969 31.613281 C 27.839844 30.976562 28.980469 31.195312 30.0625 32.121094 C 31.140625 33.046875 31.753906 34.328125 31.207031 34.964844 Z M 31.207031 34.964844"/><path fill="#4B2600" d="M 45.925781 40.34375 L 46.207031 40.007812 C 46.3125 39.886719 46.421875 39.765625 46.53125 39.644531 C 46.75 39.402344 46.976562 39.167969 47.214844 38.941406 C 47.691406 38.492188 48.199219 38.066406 48.753906 37.714844 C 49.03125 37.542969 49.320312 37.378906 49.621094 37.238281 C 49.921875 37.105469 50.230469 36.972656 50.554688 36.878906 C 51.199219 36.675781 51.886719 36.570312 52.605469 36.527344 L 52.617188 36.527344 C 52.8125 36.515625 52.921875 36.414062 52.945312 36.222656 C 52.972656 36.027344 52.890625 35.898438 52.707031 35.839844 C 51.9375 35.585938 51.144531 35.476562 50.335938 35.511719 C 49.503906 35.550781 48.699219 35.722656 47.921875 36.027344 C 46.746094 36.484375 45.722656 37.171875 44.855469 38.085938 C 44.710938 38.234375 44.578125 38.394531 44.445312 38.554688 C 44.378906 38.636719 44.316406 38.722656 44.253906 38.808594 C 44.21875 38.851562 44.191406 38.898438 44.160156 38.945312 L 44.054688 39.105469 C 43.894531 39.351562 43.84375 39.621094 43.894531 39.910156 C 43.945312 40.199219 44.089844 40.433594 44.328125 40.609375 C 44.5625 40.785156 44.828125 40.855469 45.121094 40.824219 C 45.414062 40.789062 45.65625 40.660156 45.847656 40.4375 Z M 45.925781 40.34375"/><path fill="#FFF" d="M 42.570312 34.964844 C 43.113281 35.601562 44.429688 35.367188 45.511719 34.441406 C 46.59375 33.515625 47.027344 32.25 46.480469 31.613281 C 45.9375 30.976562 44.796875 31.195312 43.714844 32.121094 C 42.632812 33.046875 42.023438 34.328125 42.570312 34.964844 Z M 42.570312 34.964844"/></svg>