<svg xmlns="http://www.w3.org/2000/svg" width="1440" viewBox="0 0 1440 900" height="900" version="1.0"><path fill="#FFF" d="M-144 -90H1584V990H-144z"/><path fill="#FFF" d="M-144 -90H1584V990H-144z"/><path fill="#FFECE8" d="M 643.621094 -58.253906 L 718.917969 900.246094 L 724.011719 900.246094 L 796.710938 -58.253906 L 643.621094 -58.253906"/><path fill="#FFECE8" d="M 363.714844 -58.253906 L 698.609375 900.246094 L 704.292969 900.246094 L 528.21875 -58.253906 L 363.714844 -58.253906"/><path fill="#FFECE8" d="M 25.199219 -58.253906 L 674.335938 900.246094 L 682.292969 900.246094 L 231.199219 -58.253906 L 25.199219 -58.253906"/><path fill="#FFECE8" d="M 1.308594 347.039062 L 639.484375 900.246094 L 653.5625 900.246094 L 1.308594 125.597656 L 1.308594 347.039062"/><path fill="#FFECE8" d="M 1.308594 623.542969 L 573.261719 900.246094 L 607.386719 900.246094 L 1.308594 477.800781 L 1.308594 623.542969"/><path fill="#FFECE8" d="M 1.308594 837.285156 L 337.480469 900.246094 L 501.324219 900.246094 L 1.308594 720.957031 L 1.308594 837.285156"/><path fill="#FFECE8" d="M 1438.691406 720.644531 L 942.144531 900.246094 L 1104.8125 900.246094 L 1438.691406 836.75 L 1438.691406 720.644531"/><path fill="#FFECE8" d="M 1438.691406 477.652344 L 835.945312 900.246094 L 870.300781 900.246094 L 1438.691406 623.320312 L 1438.691406 477.652344"/><path fill="#FFECE8" d="M 1438.691406 125.019531 L 789.558594 900.246094 L 803.789062 900.246094 L 1438.691406 346.8125 L 1438.691406 125.019531"/><path fill="#FFECE8" d="M 1208.632812 -58.253906 L 760.707031 900.246094 L 768.738281 900.246094 L 1414.082031 -58.253906 L 1208.632812 -58.253906"/><path fill="#FFECE8" d="M 912.050781 -58.253906 L 738.640625 900.246094 L 744.367188 900.246094 L 1076.355469 -58.253906 L 912.050781 -58.253906"/></svg>