<svg id="Layer_1" data-name="Layer 1" xmlns="http://www.w3.org/2000/svg" viewBox="0 0 4000 4000"><defs><style>.cls-1{fill:none;stroke:#000;}.cls-1,.cls-11{stroke-miterlimit:10;}.cls-2{opacity:0.4;}.cls-3{fill:#fff;}.cls-4{fill:#f9a429;}.cls-5{opacity:0.5;}.cls-6{opacity:0.3;}.cls-7{fill:#000072;}.cls-8{fill:#4b2600;}.cls-9{fill:#fff3e9;}.cls-10{fill:#512717;}.cls-11,.cls-13{fill:#381f1f;}.cls-11{stroke:#784421;stroke-width:9px;}.cls-12{fill:#784421;}.cls-14{fill:#1e1313;}.cls-15{fill:#d30707;}</style></defs><rect class="cls-1" width="4000" height="4000"/><g class="cls-2"><path class="cls-3" d="M3379.84,3417.61c-23.77,12-77.24,34.07-105.83,45.55"/></g><path class="cls-4" d="M2090.15,1167.63l-612.81,259.58-845,366.27C453,1561.17,353.18,855.06,521.42,609.05c50.81-74.23,127.42-107.87,236-76.14C1030.62,612.83,1467.41,1061.29,2090.15,1167.63Z"/><g class="cls-5"><path class="cls-3" d="M2089.45,1169.73l-110.07,46.66c-570.91-133.31-976.16-539.31-1234.82-614.94-108.55-31.73-185.16,1.91-236,76.14-26.5,38.79-46,88.76-59.35,146.17,12.06-85.57,35.13-159.44,71.49-212.62,50.8-74.23,127.41-107.87,236-76.14C1029.92,614.92,1466.71,1063.39,2089.45,1169.73Z"/></g><g class="cls-6"><path class="cls-7" d="M1467.23,1432.44,637.87,1783.63c-179.35-232.3-294.8-923.34-126.56-1169.35,37.22-14.41,83.49-11.72,138.29,28.25C789.83,744.69,1130,1297,1467.23,1432.44Z"/></g><path class="cls-8" d="M647.28,1817.05a36.48,36.48,0,0,1-28.94-14.21C527,1684.45,455.49,1457,423,1207.2c-35.29-271.26-7.93-493.84,73.74-613.46,63.93-93.63,177-107.06,268.3-84.73,105.59,25.81,224.46,114.39,368.71,207.11,252.34,162.18,567.93,379.11,957.07,445.58,19.89,3.4,38.06-5.66,34.66,14.22a36.51,36.51,0,0,1-42.14,29.84c-403.82-69-716.78-314.46-974.7-480.23-139.49-89.66-260-167.08-354.18-194.65-86-25.16-196.41,11.73-242,78.54C441.77,712.89,415.56,976.05,448.08,1226c30.47,234.16,116.53,447.36,199.2,554.46,12.32,16,38.25,16.62,22.29,29A36.43,36.43,0,0,1,647.28,1817.05Z"/><path class="cls-9" d="M668.51,1653.18v.1c9.92,17.75,20.2,33.37,30.79,46.36l599.33-593.9c-349.42-229-598-429.26-668.19-396.75-11,5.09-22.15,18.87-32.6,40.84-28,58.79-50.75,176.3-49.89,341.56C549,1290.22,598.24,1526.72,668.51,1653.18Z"/><g class="cls-6"><path class="cls-7" d="M672.69,1649.7v.1c9.92,17.75,20.2,33.36,30.8,46.36l603.34-590.42c-349.42-229-601.85-445.32-672-412.81-11,5.09-22.3,31.44-32.75,53.42,26.16,11.38,61.94,39.56,110.75,97.5C866.44,1026.36,871.5,1220,809.05,1401.43,791,1453.94,728,1560.71,672.69,1649.7Z"/></g><path class="cls-8" d="M707.72,1732.05c-.58,0-1.17,0-1.76,0a31.64,31.64,0,0,1-22.78-11.6C585.42,1600.66,525.82,1307,524.67,1092.21,523.5,871.27,563.07,709.85,625.49,681c59-27.34,144.46,32.86,349.11,183.84,97.12,71.64,207.2,152.84,335.07,236.7a31.67,31.67,0,0,1,4.79,49.14L729.89,1723A31.65,31.65,0,0,1,707.72,1732.05ZM660.5,695.72c-68.07,14.12-111.7,159.83-110.43,398.52,1.11,208.69,73.78,483.36,142.77,596.21l583.66-582.09c-116.1-77.55-246-172.64-331-235.35-78.45-57.87-146.2-107.84-198-139.88C693.08,699.52,660.85,695.59,660.5,695.72Z"/><path class="cls-4" d="M1974.92,1084l612.81,259.57,845,366.27c179.34-232.3,279.17-938.42,110.93-1184.43-50.81-74.23-127.42-107.87-236-76.14C3034.45,529.15,2597.66,977.62,1974.92,1084Z"/><g class="cls-5"><path class="cls-3" d="M1975.62,1086.05l110.07,46.66C2656.6,999.4,3061.85,593.4,3320.51,517.77c108.55-31.73,185.16,1.92,236,76.14,26.5,38.79,46,88.76,59.35,146.17-12.06-85.56-35.13-159.44-71.49-212.62-50.8-74.23-127.41-107.87-236-76.14C3035.15,531.24,2598.36,979.71,1975.62,1086.05Z"/></g><g class="cls-6"><path class="cls-7" d="M2597.84,1348.76,3427.2,1700c179.35-232.3,294.8-923.34,126.56-1169.35-37.22-14.41-83.49-11.72-138.29,28.25C3275.24,661,2935,1213.29,2597.84,1348.76Z"/></g><path class="cls-8" d="M3417.79,1733.37a36.48,36.48,0,0,0,28.94-14.21c91.37-118.39,162.85-345.8,195.36-595.63,35.29-271.27,7.93-493.85-73.74-613.47-63.93-93.63-177-107.06-268.3-84.73-105.59,25.81-224.46,114.39-368.71,207.11C2679,794.62,2363.41,1011.55,1974.27,1078c-19.89,3.39-38.06-5.67-34.66,14.21a36.51,36.51,0,0,0,42.14,29.84c403.82-69,716.78-314.46,974.7-480.23,139.49-89.66,260-167.08,354.18-194.65,86-25.16,196.41,11.73,242,78.55,70.64,103.46,96.85,366.62,64.33,616.6-30.47,234.16-116.53,447.36-199.2,554.46-12.32,16-38.25,16.62-22.29,29A36.37,36.37,0,0,0,3417.79,1733.37Z"/><path class="cls-9" d="M3396.56,1569.51v.09c-9.92,17.75-20.2,33.37-30.79,46.37l-599.33-593.9c349.42-229,598-429.27,668.19-396.76,11,5.09,22.15,18.87,32.6,40.85,28,58.78,50.75,176.29,49.89,341.55C3516.06,1206.54,3466.83,1443.05,3396.56,1569.51Z"/><g class="cls-6"><path class="cls-7" d="M3392.38,1566v.1c-9.92,17.75-20.2,33.37-30.8,46.36l-603.34-590.41c349.42-229,601.85-445.33,672.05-412.82,11,5.09,22.3,31.44,32.75,53.42-26.16,11.38-61.94,39.56-110.75,97.5-153.65,182.51-158.71,376.12-96.26,557.58C3274.09,1370.26,3337,1477,3392.38,1566Z"/></g><path class="cls-8" d="M3335.18,1639.33,2750.61,1067a31.67,31.67,0,0,1,4.79-49.14c127.87-83.86,237.95-165.06,335.07-236.7,204.65-151,290.06-211.17,349.11-183.84,62.42,28.89,102,190.31,100.82,411.25-1.15,214.76-60.75,508.46-158.51,628.19a31.64,31.64,0,0,1-22.78,11.6c-.59,0-1.18,0-1.76,0A31.68,31.68,0,0,1,3335.18,1639.33Zm-17.55-989.88c-51.81,32-119.56,82-198,139.88-85,62.71-214.95,157.81-331,235.35l583.66,582.09c69-112.85,141.66-387.52,142.77-596.21,1.27-238.69-42.36-384.4-110.43-398.52C3404.22,611.91,3372,615.84,3317.63,649.45Z"/><path class="cls-4" d="M3661.1,3226c-379.86,612.79-1397.59,630.63-1638.85,630.63S763.27,3838.77,383.41,3226c-156.94-253.25-112.85-461.61-51.23-588.33,35.37-72.82,76.49-118.79,88.68-130.88,53-312.49,118.69-1723.36,1601.39-1723.36s1548.4,1410.87,1601.4,1723.36c12.19,12.09,53.31,58.06,88.68,130.88C3774,2764.37,3818,2972.73,3661.1,3226Z"/><path class="cls-9" d="M3637,3245.64c-379.75,612.65-1397.11,630.67-1638.7,630.67h-.18c-241.49,0-1258.85-18-1638.6-630.67-157-253.23-112.94-461.55-51.3-588.26,133.37-164.69,368.39-321.71,729.66-156.55,122.36,56,200,171.62,405.63,120.42,109-27.17,261.82-237,554.61-237.06h.18c292.79.09,445.65,209.89,554.71,237.06,205.63,51.2,283.26-64.42,405.63-120.42,361.27-165.16,596.2-8.14,729.56,156.55C3749.86,2784.09,3794,2992.41,3637,3245.64Z"/><g class="cls-6"><path class="cls-7" d="M3637,3245.68c-379.87,612.79-1397.6,630.63-1638.85,630.63s-1259-17.84-1638.85-630.63c-98.78-159.52-117.9-301.2-103.14-415.83,10.6,83.72,41.22,176.65,103.14,276.52C739.16,3719.17,1756.88,3737,1998.14,3737s1259-17.84,1638.85-630.64c61.92-99.87,92.54-192.8,103.14-276.52C3754.89,2944.48,3735.77,3086.16,3637,3245.68Z"/></g><polygon class="cls-10" points="2015.28 2834.4 2010.92 2835.1 2010.92 2833.71 2015.28 2834.4"/><polygon class="cls-10" points="2019.54 2833.71 2019.54 2835.1 2015.28 2834.4 2019.54 2833.71"/><path class="cls-8" d="M1431,917.68c90.54-30.6,184.16-51.16,278.39-64.95,94.32-13.54,189.45-19.19,284.38-20.06,94.95.65,190.05,6.61,284.42,19.87,94.21,13.89,187.88,34.26,278.43,64.93a1327.43,1327.43,0,0,1,260.26,118.72c81.82,49.13,158.22,107.12,226,173.54.33.32.62.65.92,1a17.51,17.51,0,0,0,3.52-2.78,18,18,0,0,0-.25-25.41c-67.78-66.41-144.19-124.4-226-173.54a1327.48,1327.48,0,0,0-260.27-118.71c-90.55-30.67-184.21-51-278.42-64.94C2188,812.09,2092.92,806.12,1998,805.48c-94.93.86-190.06,6.51-284.39,20.06-94.23,13.78-187.84,34.34-278.39,64.94A1327.61,1327.61,0,0,0,1175,1009.16c-81.85,49.06-158.24,107.05-226.1,173.37a18,18,0,0,0-1.33,24.25l.1.11c67.12-65.13,142.47-122.18,223.14-170.54A1327.07,1327.07,0,0,1,1431,917.68Z"/><path class="cls-8" d="M944.2,3689.75c-92.38-39.09-181.56-87.26-264.39-145.67s-159.08-127.36-223.12-207.29c-63.92-79.73-116.27-169.86-148.12-269.35-32-99-40.05-208.09-17-311a558.29,558.29,0,0,1,22-75.64,594,594,0,0,1,31.51-72,605.41,605.41,0,0,1,40.49-67.24c7.61-10.7,15.36-21.29,23.78-31.55,6-7.33,11.94-14.36,18.63-21.56,2.82-20.49,5.15-41.54,7.87-62.59l9.39-74.61c6.32-49.92,13.49-100,22.18-149.8,17.12-99.73,39.06-199,67.82-296.59,14.34-48.78,30.19-97.18,48.1-144.87s37.18-94.91,58.85-141.1c39.38-83.83,87.18-164.34,145.93-236a18.28,18.28,0,0,0-3.58-4.27,18.07,18.07,0,0,0-25.49,1.73c-67.11,76.89-120.6,165.16-163.93,257.4-21.67,46.19-41.08,93.38-58.85,141.11s-33.76,96.08-48.1,144.87c-28.76,97.55-50.7,196.86-67.82,296.59-8.69,49.85-15.86,99.88-22.18,149.79l-9.39,74.62c-2.72,21.05-5.05,42.1-7.87,62.58-6.69,7.21-12.64,14.24-18.63,21.57-8.42,10.26-16.17,20.85-23.78,31.55A605.41,605.41,0,0,0,298,2627.66a594,594,0,0,0-31.51,72,559.31,559.31,0,0,0-22,75.64c-23.09,102.92-15.06,212,17,311,31.85,99.5,84.2,189.63,148.12,269.36,64,79.92,140.38,148.94,223.12,207.29s172,106.57,264.39,145.66c92.28,39.46,187.64,70.25,284.11,95,193.31,48.56,391,73.56,588.51,80.21a18,18,0,0,0,18.48-16.11,18.73,18.73,0,0,0,0-3.82c-188-8-375.93-32.89-559.9-79.1C1131.84,3760,1036.48,3729.2,944.2,3689.75Z"/><path class="cls-8" d="M3069.1,3689.75c92.38-39.09,181.56-87.26,264.39-145.67s159.08-127.36,223.12-207.29c63.92-79.73,116.27-169.86,148.12-269.35,32-99,40.05-208.09,17-311a559.73,559.73,0,0,0-22-75.64,594,594,0,0,0-31.51-72,605.41,605.41,0,0,0-40.49-67.24c-7.61-10.7-15.37-21.29-23.78-31.55-6-7.33-11.94-14.36-18.63-21.56-2.82-20.49-5.16-41.54-7.87-62.59l-9.39-74.61c-6.33-49.92-13.49-100-22.18-149.8-17.12-99.73-39.06-199-67.82-296.59-14.34-48.78-30.2-97.18-48.1-144.87s-37.18-94.91-58.85-141.1c-39.38-83.83-87.18-164.34-145.93-236a18.28,18.28,0,0,1,3.58-4.27,18.07,18.07,0,0,1,25.49,1.73c67.11,76.89,120.59,165.16,163.93,257.4,21.67,46.19,41.07,93.38,58.85,141.11s33.76,96.08,48.1,144.87c28.76,97.55,50.69,196.86,67.82,296.59,8.69,49.85,15.85,99.88,22.17,149.79l9.4,74.62c2.71,21.05,5.05,42.1,7.87,62.58,6.69,7.21,12.64,14.24,18.63,21.57,8.41,10.26,16.17,20.85,23.78,31.55a606.94,606.94,0,0,1,40.49,67.24,595.52,595.52,0,0,1,31.51,72,559.31,559.31,0,0,1,22,75.64c23.09,102.92,15.06,212-17,311-31.85,99.5-84.2,189.63-148.12,269.36-64,79.92-140.38,148.94-223.12,207.29s-172,106.57-264.39,145.66c-92.28,39.46-187.64,70.25-284.11,95-193.31,48.56-391,73.56-588.51,80.21a17.94,17.94,0,0,1-18.46-19.93c188-8,375.92-32.89,559.9-79.1C2881.46,3760,2976.82,3729.2,3069.1,3689.75Z"/><polygon class="cls-10" points="2015.41 2742.26 2011.06 2742.95 2011.06 2741.57 2015.41 2742.26"/><polygon class="cls-10" points="2019.67 2741.57 2019.67 2742.95 2015.41 2742.26 2019.67 2741.57"/><path class="cls-9" d="M2292.75,2733.09s31.67,91.94-51.28,139.06c-79.84,45.35-173.76-13.51-217.94-47.9a65.88,65.88,0,0,1-25.41-52.05v0a65.88,65.88,0,0,1-25.41,52.05c-44.18,34.39-138.1,93.25-217.94,47.9-83-47.12-51.27-139.06-51.27-139.06S1723.2,2487,1998.22,2487,2292.75,2733.09,2292.75,2733.09Z"/><path class="cls-8" d="M2206.46,2515.58c-39.41,110.31-208.24,172.49-208.24,172.49s-168.83-62.18-208.24-172.49c-28.12-78.92,170.51-91.79,208.24-91.79S2234.58,2436.66,2206.46,2515.58Z"/><g class="cls-5"><path class="cls-3" d="M2084.61,2474c-16.34,27.86-86.33,27.35-86.33,27.35s-70,.51-86.34-27.35c-11.65-19.93,70.7-23.18,86.34-23.18S2096.27,2454,2084.61,2474Z"/></g><path class="cls-8" d="M1606,2969.09c117.59,18.06,233.21-26.56,307.6-83.6,38.22-29.31,66.52-64.14,88.44-99.6a265.87,265.87,0,0,0,31.25-72.12c4.49-17-1.08-45.83,19.77-56.92,61-32.49,1.19-94.19-67.93-88.16-68.63,6-101.53,74.88-30.07,96.32a64.15,64.15,0,0,1,19.93,7.75l-23-19.26c44.27,68.45-3.38,163.37-73.48,217.37-74.49,57.38-169.1,72-272.56,96.58-1.14.27-1.36,1.43,0,1.64Z"/><path class="cls-8" d="M2474.13,2964.71c-106.94-13.58-203.47-18.13-290.5-66.21-42.77-23.64-76.87-52.23-98.27-85.87a245.42,245.42,0,0,1-25-51.5c-2.15-6.2-17.19-54.12-15.74-54.75,64.68-27.94,42.58-97.25-40.82-97.25-79.65,0-110.69,71.23-40.81,97.25,17.55,6.54,27.57,53.45,35.11,65.82a331.8,331.8,0,0,0,41.46,55.09c32.68,34.81,72.26,68.09,121.52,93.73,86.86,45.22,205.48,73.89,313,45.33,1.06-.29,1.42-1.46,0-1.64Z"/><path class="cls-11" d="M2505,319.16c0-121.31-214.29-217.44-474.76-217.44s-478.13,96.13-478.13,217.44c0,21.29,6.73,41.94,19.19,61.52l131.3,295.37c16.33,33.92,51.32,55.58,89.78,55.58h445.69c36,0,69.25-19,86.72-49.75l154.68-291.49C2496,368,2505,344,2505,319.16Z"/><path class="cls-12" d="M613.63,1681.19c14.63-45.85,37.9-82.8,41.82-88.86-8.65,4.45-15.21,8.92-19.51,13.38C878.05,1017,1340.23,718.63,2010.78,718.63c707.25,0,1181.69,330.93,1411.79,984,54,82.58,80.35,162.39,86.58,182.77L3485,1803.73c-42-142.16-95.32-272.66-158.34-387.9-76-139-168.45-259.91-274.65-359.3C2929.66,942,2785.93,853.15,2624.83,792.4c-180.29-68-386.89-102.45-614-102.45-207.85,0-398.76,28.87-567.41,85.8-152.53,51.49-290.43,127.13-409.88,224.82C837.32,1161,685.41,1385,582,1666.34l-26.82,73,50.67-58.47Z"/><path class="cls-12" d="M659.5,1590.33l86.88-28.11C708.76,1571.4,679.35,1580.83,659.5,1590.33Z"/><path class="cls-13" d="M1997.9,1218.59c216.7,0,375.49-141.55,536.15-121.28,101.35,12.8,230.81,74.18,323,137.81,13.47,9.3,42.37,23.78,55,29.77,278.38,132.36,437.54,384.27,574.15,591.89C3334.81,1325.57,2970,693.63,2002.36,693.63c-881.44,0-1262.66,524.35-1438,1019.29,367-342.19,585.46-518.6,824.13-621.67,111.33-48.08-59,27.93,85.86,19.29C1624.49,1101.59,1821.76,1218.59,1997.9,1218.59Z"/><path class="cls-14" d="M1723.31,692.93c297.06-250.34,571.25-46.54,590.31-16,8.67,13.9-1.07,34.82-1.07,34.82s-203.76-32.42-276.37-26.34-314.86,31.92-314.86,31.92Z"/><path class="cls-12" d="M1842.44,517.61c-33,19.44-5.3,91.63,10,119.51,15.47,27.87,30.27,47.24,41.93,56.56l9.76-4.7,17.11-9.86-10.77-8.55c-4.17-3.34-20.79-22.84-34.92-48.3s-27.3-57.83-31.34-90.38Z"/><path class="cls-12" d="M1910.28,599.07a794.55,794.55,0,0,0,41.49,86.53l7,12.31,22.93-15.13-7.09-12.31a765.31,765.31,0,0,1-39.74-83c-19.56-47.88-37.9-108.5-35.45-155.68l.79-14.38C1852.13,433.57,1896.92,566,1910.28,599.07Z"/><path class="cls-12" d="M1973.47,576.8A707.65,707.65,0,0,0,1989.23,646c5.29,18.52,9.39,30.81,14.27,39.18l7.09,12.22,22.84-15.32-7.09-12.21c-1.06-1.82-6.4-14.9-11.38-32.32a679.05,679.05,0,0,1-15-66.24c-9.25-52-15.09-116.44-7.62-175.22l1.84-14.38C1951.25,383.57,1967.19,540.65,1973.47,576.8Z"/><path class="cls-12" d="M2062.4,446.3c5.35,35.43.09,70.77-3,103.25-4.25,44.52-10.61,95-17,125.53l-2.89,14.09,26.26,6.29,2.89-14.09c6.91-33.09,13.2-83.73,17.51-128.9C2089.2,507.65,2093.29,448.84,2062.4,446.3Z"/><path class="cls-12" d="M2168.66,420.27l-1.22,14.38c-1.52,17.67-13.24,66.3-27.75,114s-32.37,96.64-44.11,117.45l-7,12.3,23,14.94,6.91-12.3c14.83-26.28,31.93-74.8,46.74-123.46C2178.53,507.57,2199.62,427.05,2168.66,420.27Z"/><path class="cls-12" d="M2227.4,514.88l-3.59,13.91c-3.83,14.93-40.34,111.92-60.92,141.78l-8,11.55,24.59,9.08,5-3.53C2209.86,649.68,2257.76,528.05,2227.4,514.88Z"/><polygon class="cls-13" points="1179.68 1259.88 567.38 1725.87 720.45 1479.54 1096.18 1131.22 1318.84 1087.29 1331.21 1134.36 1179.68 1259.88"/><path class="cls-13" d="M3458.61,1810s-652.5-671.52-862.79-709.18,3.1-141.2,3.1-141.2l395.83,207.1,358.72,455Z"/><path class="cls-14" d="M1172.43,1262.52c66.9-98.75,238.63-232.89,365.71-228,172.64,6.68,388.82,110.64,482,103.43S2386.6,1012.36,2530,1032.14s312.34,196.84,331.27,226.64-101.32-85.12-162.31-102.5-111.41-59.86-180.27-54.92-309.88,76.3-369.64,101.83-77.71,42.63-138.7,39.15-259.71-84.72-302.25-96.48-195-53.45-236.59-44.77S1221.13,1210.27,1172.43,1262.52Z"/><path class="cls-12" d="M1570.5,994.38c15.4,52.06,37.39,103.91,68.94,131.3l8.69,7.58,16-16.31-8.62-7.51c-24.11-20.93-47.39-70.76-62.24-121s-22.08-102-20.24-124.23l.92-11.05C1539.84,855,1564.78,974.7,1570.5,994.38Z"/><path class="cls-12" d="M1759.77,1100a460,460,0,0,0,31.31,52.77c9.5,13.73,16.67,22.67,21.85,27.58l8.39,7.87,16.77-15.6-8.31-7.87c-2-1.91-9.88-11.15-18.85-24.11a437,437,0,0,1-29.85-50.16c-20.3-40-38.26-91.11-37.08-141.49l.23-11.11C1700.57,957.56,1747.75,1075.93,1759.77,1100Z"/><path class="cls-12" d="M1892.18,1086.85a930.49,930.49,0,0,0,31.08,94.13c4.92,12.39,9.52,22.82,13.47,30.82s6.11,12.9,11,17.69l8.16,7.94,17.08-15.31-8.16-8c.85.83-3.12-4.38-6.69-11.62s-7.94-17.24-12.7-29.24a908.23,908.23,0,0,1-30.39-91.89c-19.63-71.57-34-158.07-23.08-222.69l1.85-11C1841.93,865.54,1877,1036.17,1892.18,1086.85Z"/><path class="cls-12" d="M2120.69,843.37c10,23.73,0,118.83-6.08,170.86-9.09,78.24-25.92,164.16-47,200.67l-5.62,9.75,20.78,10.54,5.61-9.75c25.62-44.34,41.44-129.49,49.78-208.83C2143.65,964.3,2159.87,848,2120.69,843.37Z"/><path class="cls-12" d="M2276.64,918c-5.85,45.59-13.61,91-22.93,128.49-11.76,47.26-29.2,94.78-47.47,115.56l-7.54,8.59,18.24,14.08,7.54-8.52c24.21-27.54,41-76,52.24-124.66C2287.65,1004,2296.58,938,2276.64,918Z"/><path class="cls-12" d="M2455.75,865c4.39,51-29.46,173.09-76.86,238.07l-6.85,9,19.24,12.92,6.85-9C2436.94,1084.36,2504.42,877.44,2455.75,865Z"/><path class="cls-15" d="M2319.87,705c0-24.84-109.86-78.45-291.83-78.45s-308.56,55.7-308.56,80.54,127.64-11.5,309.61-11.5S2319.87,729.88,2319.87,705Z"/><path class="cls-8" d="M1421.42,2168.14l-17.6-20.73c-6.35-7.64-13.22-15-20-22.6-13.72-14.88-27.81-29.59-42.57-43.59-29.58-27.87-60.86-54.17-95.32-76-17.33-10.61-35.06-20.94-53.72-29.55-18.72-8.23-37.86-16.53-57.93-22.36-40-12.69-82.61-19.1-127.25-21.68l-.67,0a22,22,0,0,1-5.59-42.85,417.74,417.74,0,0,1,147.08-20.2,465.21,465.21,0,0,1,149.56,32,522.68,522.68,0,0,1,190.23,127.65c8.94,9.21,17.25,19,25.47,29.13,4.08,5.06,8,10.32,11.92,15.72,2,2.64,3.87,5.53,5.79,8.36l6.43,9.92a69.33,69.33,0,0,1-111,82.6Z"/><path class="cls-3" d="M1629.48,1834.63C1595.72,1874,1514,1859.46,1447,1802.06s-94-135.88-60.2-175.3,104.62-25.81,171.63,31.59S1663.25,1795.21,1629.48,1834.63Z"/><path class="cls-8" d="M2542.15,2168.14l17.6-20.73c6.35-7.64,13.22-15,19.95-22.6,13.72-14.88,27.81-29.59,42.57-43.59,29.58-27.87,60.86-54.17,95.32-76,17.33-10.61,35.06-20.94,53.72-29.55,18.73-8.23,37.86-16.53,57.93-22.36,40-12.69,82.61-19.1,127.25-21.68l.67,0a22,22,0,0,0,5.59-42.85,417.74,417.74,0,0,0-147.08-20.2,465.27,465.27,0,0,0-149.56,32,522.68,522.68,0,0,0-190.23,127.65c-8.94,9.21-17.25,19-25.47,29.13-4.08,5.06-8,10.32-11.92,15.72-2,2.64-3.87,5.53-5.79,8.36l-6.43,9.92a69.33,69.33,0,0,0,111,82.6Z"/><path class="cls-3" d="M2334.09,1834.63c33.76,39.41,115.45,24.83,182.46-32.57s94-135.88,60.2-175.3-104.62-25.81-171.62,31.59S2300.32,1795.21,2334.09,1834.63Z"/></svg>